<svg xmlns="http://www.w3.org/2000/svg" width="48" height="512" viewBox="0 0 512 512" version="1.1"><path d="" stroke="none" fill="#080404" fill-rule="evenodd"/><path d="M 28.286 1.444 C 17.998 4.676, 7.941 13.624, 3.180 23.782 L 0.500 29.500 0.500 215 L 0.500 400.500 3.196 406.253 C 8.984 418.604, 21.716 428.100, 35.075 430.031 C 38.609 430.542, 53.323 430.969, 67.774 430.980 L 94.048 431 223.753 471.500 L 353.457 512 367.239 512 C 379.255 512, 381.608 511.725, 385.593 509.851 C 392.653 506.533, 400.517 498.740, 403.940 491.672 C 406.560 486.262, 510.613 154.378, 511.244 149.418 C 511.378 148.363, 511.719 203.750, 512 272.500 C 512.470 387.332, 512.512 382.573, 512.520 214 C 512.524 113.075, 512.296 53.411, 512.014 81.413 C 511.593 123.128, 511.286 131.528, 510.317 127.913 C 507.639 117.926, 498.501 107.466, 488.499 102.938 C 486.298 101.942, 456.148 92.303, 421.499 81.520 C 386.849 70.736, 356.363 61.222, 353.750 60.376 L 349 58.839 348.980 50.170 C 348.969 45.401, 348.542 38.609, 348.031 35.075 C 346.100 21.712, 337.333 9.751, 325.032 3.695 L 318.543 0.500 175.521 0.310 C 59.226 0.155, 31.713 0.367, 28.286 1.444 M 33.500 22.896 C 28.598 25.165, 24.612 29.288, 22.553 34.218 C 21.169 37.532, 21 57.210, 21 215.272 L 21 392.607 23.535 397.694 C 25.164 400.964, 27.574 403.801, 30.285 405.640 L 34.500 408.500 174.152 408.500 L 313.803 408.500 318.149 405.352 C 320.540 403.620, 323.513 400.280, 324.756 397.929 L 327.016 393.655 326.758 213.992 L 326.500 34.329 323.637 30.198 C 321.848 27.616, 318.867 25.116, 315.691 23.533 L 310.607 21 174.054 21.022 C 43.271 21.043, 37.331 21.122, 33.500 22.896 M 0.489 215 C 0.489 315.925, 0.607 357.212, 0.750 306.750 C 0.893 256.287, 0.893 173.712, 0.750 123.250 C 0.607 72.787, 0.489 114.075, 0.489 215 M 266.278 41.250 C 265.362 42.435, 237 121.006, 237 122.359 C 237 122.712, 239.663 123, 242.918 123 L 248.835 123 252 113.500 L 255.165 104 271.424 104 L 287.683 104 288.953 108.250 C 289.651 110.588, 291.113 114.884, 292.201 117.797 L 294.179 123.094 299.840 122.797 C 304.250 122.566, 305.429 122.169, 305.180 121 C 304.433 117.496, 277.659 42.387, 276.752 41.250 C 276.204 40.563, 273.840 40, 271.500 40 C 269.160 40, 266.810 40.563, 266.278 41.250 M 265.432 75.320 L 259.414 92.500 270.841 92.783 C 277.126 92.938, 282.471 92.863, 282.719 92.614 C 282.967 92.366, 280.533 84.508, 277.310 75.152 L 271.449 58.141 265.432 75.320 M 348.980 235.250 C 348.968 322.143, 348.565 391.230, 348.048 394.806 C 345.387 413.206, 331.206 427.387, 312.806 430.048 C 309.338 430.549, 275.225 430.992, 237 431.031 L 167.500 431.103 263 461.062 C 315.525 477.540, 360.596 491.495, 363.158 492.074 C 373.283 494.362, 382.847 488.177, 386.758 476.814 C 391.245 463.778, 489.851 146.344, 490.510 142.815 C 491.832 135.737, 487.030 126.571, 480.192 123.117 C 477.032 121.521, 351.588 82, 349.682 82 C 349.307 82, 348.991 150.963, 348.980 235.250 M 406.100 161.672 C 392.131 180.238, 380.512 196.151, 380.281 197.035 C 379.979 198.187, 380.973 198.975, 383.796 199.821 C 385.961 200.469, 388.464 201, 389.359 201 C 390.254 201, 393.482 197.625, 396.532 193.500 C 399.583 189.375, 402.562 186, 403.153 186 C 403.743 186, 410.666 188.038, 418.537 190.528 L 432.847 195.057 433.430 201.278 C 433.751 204.700, 434.123 209.280, 434.257 211.456 C 434.489 215.240, 434.707 215.477, 439.243 216.880 C 441.852 217.687, 444.279 218.054, 444.637 217.697 C 445.262 217.071, 443.644 162.460, 442.370 141.178 C 441.772 131.200, 441.664 130.823, 439.126 129.855 C 431.623 126.996, 433.695 125, 406.100 161.672 M 165.403 149.702 C 147.627 164.777, 132.145 182.663, 126.438 194.719 C 123.277 201.395, 122.175 211.274, 123.886 217.596 C 127.648 231.500, 142.858 238.695, 159.994 234.677 C 163.566 233.840, 166.630 233.297, 166.804 233.471 C 166.978 233.644, 163.954 241.121, 160.085 250.085 C 156.216 259.049, 153.302 266.635, 153.608 266.942 C 154.368 267.701, 193.678 267.655, 194.439 266.895 C 194.772 266.562, 192.168 259.587, 188.654 251.395 C 185.139 243.203, 181.956 235.511, 181.580 234.301 C 180.905 232.125, 180.932 232.120, 184.199 233.760 C 189.461 236.403, 204.123 236.078, 210.488 233.176 C 221.003 228.382, 224.458 222.533, 224.483 209.485 C 224.498 201.349, 224.189 199.838, 221.307 193.985 C 217.497 186.249, 212.353 179.194, 202.973 168.844 C 196.086 161.244, 175.729 143, 174.136 143 C 173.679 143, 169.749 146.016, 165.403 149.702 M 420.761 160.901 C 414.855 168.888, 410.355 175.739, 410.761 176.125 C 411.763 177.077, 432.035 183.299, 432.528 182.805 C 432.744 182.590, 432.601 174.305, 432.210 164.396 L 431.500 146.378 420.761 160.901 M 43 308.370 C 43 310.302, 70.031 387.127, 71.281 388.750 C 72.532 390.372, 80.447 390.372, 81.793 388.749 C 82.810 387.524, 111 309.402, 111 307.810 C 111 307.364, 108.412 307.001, 105.250 307.002 L 99.500 307.004 96.141 316.526 L 92.782 326.048 76.695 325.774 L 60.608 325.500 57.422 316.500 L 54.236 307.500 48.618 307.200 C 44.206 306.965, 43 307.216, 43 308.370 M 65.226 338.250 C 65.468 338.938, 68.076 346.593, 71.021 355.262 C 73.967 363.931, 76.674 370.681, 77.037 370.262 C 77.400 369.843, 80.226 362.188, 83.316 353.250 L 88.936 337 76.861 337 C 67.633 337, 64.890 337.295, 65.226 338.250" stroke="none" fill="#040404" fill-rule="evenodd"/></svg>