<?xml version="1.0" standalone="no"?>
<!DOCTYPE svg PUBLIC "-//W3C//DTD SVG 20010904//EN"
 "http://www.w3.org/TR/2001/REC-SVG-20010904/DTD/svg10.dtd">
<svg version="1.0" xmlns="http://www.w3.org/2000/svg"
 width="351.000000pt" height="95.000000pt" viewBox="0 0 351.000000 95.000000"
 preserveAspectRatio="xMidYMid meet">

<g transform="translate(0.000000,95.000000) scale(0.100000,-0.100000)"
fill="#000000" stroke="none">
<path d="M1860 895 l0 -55 185 0 185 0 0 55 0 55 -185 0 -185 0 0 -55z"/>
<path d="M0 625 l0 -65 215 0 215 0 0 -280 0 -280 155 0 155 0 0 280 0 280
215 0 215 0 0 65 0 65 -585 0 -585 0 0 -65z"/>
<path d="M1597 683 c-4 -3 -7 -33 -7 -65 l0 -58 -155 0 -155 0 0 -280 0 -280
475 0 475 0 0 55 0 55 -320 0 -321 0 3 83 3 82 318 3 317 2 0 60 0 60 -317 2
-318 3 -3 78 -3 77 321 0 320 0 0 65 0 65 -313 0 c-173 0 -317 -3 -320 -7z"/>
<path d="M2835 680 c-168 -20 -264 -79 -317 -195 -18 -41 -23 -68 -23 -150 0
-87 3 -107 26 -155 33 -70 79 -116 149 -149 l55 -26 388 -3 387 -3 0 56 0 55
-292 0 c-275 0 -295 1 -326 20 -18 11 -37 32 -42 46 -17 43 -13 290 5 324 30
57 45 60 365 60 l290 0 0 65 0 65 -302 -1 c-167 -1 -330 -5 -363 -9z"/>
</g>
</svg>
